<?xml version="1.0" encoding="UTF-8"?>
<svg version="1.1" xmlns="http://www.w3.org/2000/svg" width="50" height="50">
<path d="M0 0 C16.5 0 33 0 50 0 C50 16.5 50 33 50 50 C33.5 50 17 50 0 50 C0 33.5 0 17 0 0 Z " fill="#1F2136" transform="translate(0,0)"/>
<path d="M0 0 C11.625 -0.25 11.625 -0.25 15 2 C15.43132515 6.05445642 15.30019361 7.54970958 13 11 C13.5053125 11.63808594 14.010625 12.27617188 14.53125 12.93359375 C15.1809375 13.75988281 15.830625 14.58617187 16.5 15.4375 C17.1496875 16.26121094 17.799375 17.08492187 18.46875 17.93359375 C20 20 20 20 20 21 C17.4375 21.5 17.4375 21.5 14 21 C11.28354627 18.62513626 9.02568695 15.98459202 7 13 C7 12.34 7 11.68 7 11 C6.34 11 5.68 11 5 11 C5 13.31 5 15.62 5 18 C3.35 18 1.7 18 0 18 C0 12.06 0 6.12 0 0 Z " fill="#F1F1F2" transform="translate(19,21)"/>
<path d="M0 0 C8.91 0 17.82 0 27 0 C27 1.65 27 3.3 27 5 C20.07 5 13.14 5 6 5 C6 11.6 6 18.2 6 25 C4.35 25 2.7 25 1 25 C0.67 16.75 0.34 8.5 0 0 Z " fill="#FDFDFD" transform="translate(11,14)"/>
<path d="M0 0 C2.475 0.495 2.475 0.495 5 1 C4.67 2.32 4.34 3.64 4 5 C2.68 5 1.36 5 0 5 C0 3.35 0 1.7 0 0 Z " fill="#232539" transform="translate(24,24)"/>
</svg>
